<svg xmlns="http://www.w3.org/2000/svg" xmlns:xlink="http://www.w3.org/1999/xlink" viewBox="0 0 132.79 34.01" width="132.79px" height="34.01px"><defs><style>.cls-1{fill:#777878;}.cls-2{fill:#fff;}.cls-3{fill:url(#linear-gradient);}.cls-4{fill:none;}.cls-5{fill:url(#linear-gradient-2);}</style><linearGradient id="linear-gradient" x1="17.49" y1="-47.47" x2="17.49" y2="-69.86" gradientTransform="matrix(1, 0, 0, -1, 0, -41.66)" gradientUnits="userSpaceOnUse"><stop offset="0" stop-color="#f452ff"/><stop offset="1" stop-color="#832bc1"/></linearGradient><linearGradient id="linear-gradient-2" x1="17.49" y1="-47.47" x2="17.49" y2="-69.86" gradientTransform="matrix(1, 0, 0, -1, 0, -41.66)" gradientUnits="userSpaceOnUse"><stop offset="0" stop-color="#ff9402"/><stop offset="1" stop-color="#ff613c"/></linearGradient></defs><title>Artboard 1 copy 3</title><g id="Icon"><g id="_Group_" data-name="&lt;Group&gt;"><path id="_Path_" data-name="&lt;Path&gt;" class="cls-1" d="M132.78,9.08c0-.33,0-.66,0-1a14.52,14.52,0,0,0-.2-2.15,7.17,7.17,0,0,0-.67-2,6.95,6.95,0,0,0-3-3,7.24,7.24,0,0,0-2.05-.68A14,14,0,0,0,124.7,0H8.09A14.35,14.35,0,0,0,5.93.21a7.19,7.19,0,0,0-2,.68A6.89,6.89,0,0,0,2.15,2.15,6.69,6.69,0,0,0,.88,3.89a7.09,7.09,0,0,0-.67,2A14,14,0,0,0,0,8.09c0,.33,0,.66,0,1V24.94c0,.33,0,.66,0,1a13.87,13.87,0,0,0,.19,2.15,7.07,7.07,0,0,0,.67,2,6.68,6.68,0,0,0,1.27,1.74,6.7,6.7,0,0,0,1.74,1.27,7.17,7.17,0,0,0,2,.68A14.35,14.35,0,0,0,8.09,34H124.7a14.15,14.15,0,0,0,2.15-.19,7.25,7.25,0,0,0,2.05-.68,6.71,6.71,0,0,0,1.74-1.27,6.88,6.88,0,0,0,1.27-1.74,7.18,7.18,0,0,0,.67-2,14.52,14.52,0,0,0,.2-2.15c0-.33,0-.66,0-1s0-.78,0-1.18V10.25C132.79,9.86,132.79,9.47,132.78,9.08Z"/><path id="_Path_2" data-name="&lt;Path&gt;" class="cls-2" d="M132.13,23.76c0,.39,0,.77,0,1.18s0,.65,0,1a13.78,13.78,0,0,1-.19,2.06,6.52,6.52,0,0,1-.6,1.85,6.32,6.32,0,0,1-1.15,1.58,6.2,6.2,0,0,1-1.57,1.14,6.67,6.67,0,0,1-1.86.62,14.5,14.5,0,0,1-2,.18H8.1A14.36,14.36,0,0,1,6,33.16a6.6,6.6,0,0,1-1.86-.62,6.28,6.28,0,0,1-2.72-2.72A6.59,6.59,0,0,1,.86,28a13.43,13.43,0,0,1-.18-2.05c0-.23,0-.46,0-.68V8.79c0-.23,0-.45,0-.69A13.42,13.42,0,0,1,.86,6.05a6.46,6.46,0,0,1,.61-1.86A6.06,6.06,0,0,1,2.62,2.62,6.24,6.24,0,0,1,4.19,1.47,6.58,6.58,0,0,1,6,.86,14.6,14.6,0,0,1,8.1.68H124.68a14.31,14.31,0,0,1,2.05.18,6.62,6.62,0,0,1,1.86.61,6.13,6.13,0,0,1,1.57,1.14,6.3,6.3,0,0,1,1.15,1.57,6.42,6.42,0,0,1,.61,1.87,13.58,13.58,0,0,1,.19,2c0,.32,0,.65,0,1s0,.77,0,1.16V23.76Z"/><g id="_Group_2" data-name="&lt;Group&gt;"><g id="_Group_3" data-name="&lt;Group&gt;"><path id="_Path_3" data-name="&lt;Path&gt;" class="cls-3" d="M28.24,25.22a4.74,4.74,0,0,1-1.43,1.88,4.68,4.68,0,0,1-1.58.82,9.75,9.75,0,0,1-2.71.28H12.45a9.75,9.75,0,0,1-2.71-.28,4.74,4.74,0,0,1-3-2.7A8.79,8.79,0,0,1,6.29,22h0V12h0A8.77,8.77,0,0,1,6.74,8.8a4.74,4.74,0,0,1,3-2.7,9.75,9.75,0,0,1,2.71-.28H22.53a9.75,9.75,0,0,1,2.71.28,4.74,4.74,0,0,1,3,2.7A8.79,8.79,0,0,1,28.69,12V22A8.77,8.77,0,0,1,28.24,25.22Z"/><path id="_Path_4" data-name="&lt;Path&gt;" class="cls-4" d="M28.24,25.22a4.74,4.74,0,0,1-1.43,1.88,4.68,4.68,0,0,1-1.58.82,9.75,9.75,0,0,1-2.71.28H12.45a9.75,9.75,0,0,1-2.71-.28,4.74,4.74,0,0,1-3-2.7A8.79,8.79,0,0,1,6.29,22h0V12h0A8.77,8.77,0,0,1,6.74,8.8a4.74,4.74,0,0,1,3-2.7,9.75,9.75,0,0,1,2.71-.28H22.53a9.75,9.75,0,0,1,2.71.28,4.74,4.74,0,0,1,3,2.7A8.79,8.79,0,0,1,28.69,12V22A8.77,8.77,0,0,1,28.24,25.22Z"/><g id="_Group_4" data-name="&lt;Group&gt;"><path class="cls-2" d="M19.11,18.68a2.24,2.24,0,0,0-1.62-.58,2.24,2.24,0,0,0-1.62.58,1,1,0,0,0-.3.65,8.37,8.37,0,0,0,0,1.69c.06.69.17,1.6.31,2.53a9.71,9.71,0,0,0,.26,1.28,1.27,1.27,0,0,0,1.31.78,1.27,1.27,0,0,0,1.31-.78,9.63,9.63,0,0,0,.26-1.28c.15-.93.26-1.85.31-2.53a8.37,8.37,0,0,0,0-1.69A1,1,0,0,0,19.11,18.68Zm-3.45-3.16a1.83,1.83,0,1,0,1.83-1.83A1.83,1.83,0,0,0,15.66,15.52Zm1.81-7.23A7.87,7.87,0,0,0,14.89,23.6a.11.11,0,0,0,.14-.11c0-.27-.08-.54-.11-.81a.27.27,0,0,0-.16-.21,6.87,6.87,0,1,1,5.48,0,.27.27,0,0,0-.16.21c0,.27-.07.54-.11.81a.11.11,0,0,0,.14.11,7.87,7.87,0,0,0-2.63-15.3Zm-.14,3.61a4.27,4.27,0,0,1,3.09,7.38.33.33,0,0,0-.1.26,7.76,7.76,0,0,1,0,.9.1.1,0,0,0,.16.09,5.27,5.27,0,1,0-5.94,0,.1.1,0,0,0,.16-.09,7.36,7.36,0,0,1,0-.9.33.33,0,0,0-.1-.26,4.27,4.27,0,0,1,2.75-7.38Z"/></g></g></g></g><path id="_Path_5" data-name="&lt;Path&gt;" class="cls-2" d="M132.13,23.76c0,.39,0,.77,0,1.18s0,.65,0,1a13.78,13.78,0,0,1-.19,2.06,6.52,6.52,0,0,1-.6,1.85,6.32,6.32,0,0,1-1.15,1.58,6.2,6.2,0,0,1-1.57,1.14,6.67,6.67,0,0,1-1.86.62,14.5,14.5,0,0,1-2,.18H8.1A14.36,14.36,0,0,1,6,33.16a6.6,6.6,0,0,1-1.86-.62,6.28,6.28,0,0,1-2.72-2.72A6.59,6.59,0,0,1,.86,28a13.43,13.43,0,0,1-.18-2.05c0-.23,0-.46,0-.68V8.79c0-.23,0-.45,0-.69A13.42,13.42,0,0,1,.86,6.05a6.46,6.46,0,0,1,.61-1.86A6.06,6.06,0,0,1,2.62,2.62,6.24,6.24,0,0,1,4.19,1.47,6.58,6.58,0,0,1,6,.86,14.6,14.6,0,0,1,8.1.68H124.68a14.31,14.31,0,0,1,2.05.18,6.62,6.62,0,0,1,1.86.61,6.13,6.13,0,0,1,1.57,1.14,6.3,6.3,0,0,1,1.15,1.57,6.42,6.42,0,0,1,.61,1.87,13.58,13.58,0,0,1,.19,2c0,.32,0,.65,0,1s0,.77,0,1.16V23.76Z"/><path id="_Path_6" data-name="&lt;Path&gt;" class="cls-5" d="M28.24,25.22a4.74,4.74,0,0,1-1.43,1.88,4.68,4.68,0,0,1-1.58.82,9.75,9.75,0,0,1-2.71.28H12.45a9.75,9.75,0,0,1-2.71-.28,4.74,4.74,0,0,1-3-2.7A8.79,8.79,0,0,1,6.29,22h0V12h0A8.77,8.77,0,0,1,6.74,8.8a4.74,4.74,0,0,1,3-2.7,9.75,9.75,0,0,1,2.71-.28H22.53a9.75,9.75,0,0,1,2.71.28,4.74,4.74,0,0,1,3,2.7A8.79,8.79,0,0,1,28.69,12V22A8.77,8.77,0,0,1,28.24,25.22Z"/></g><g id="Layer_1" data-name="Layer 1"><path class="cls-1" d="M33.41,7h.9v5.21H37V13H33.41Z"/><path class="cls-1" d="M38.06,7.47A.52.52,0,0,1,38.59,7a.51.51,0,0,1,.52.51.52.52,0,0,1-.52.52A.53.53,0,0,1,38.06,7.47Zm.13,1.21H39V13h-.81Z"/><path class="cls-1" d="M40.48,11.87a2.11,2.11,0,0,0,1.46.62c.61,0,.94-.25.94-.62s-.5-.58-1.05-.7c-.74-.17-1.6-.37-1.6-1.31,0-.69.59-1.29,1.66-1.29a2.32,2.32,0,0,1,1.66.62l-.36.57a1.69,1.69,0,0,0-1.29-.53c-.55,0-.89.22-.89.57s.47.5,1,.63c.76.17,1.66.38,1.66,1.38,0,.75-.61,1.33-1.76,1.33a2.48,2.48,0,0,1-1.81-.68Z"/><path class="cls-1" d="M45,12.06V9.39H44.3V8.68H45V7.49h.81V8.68h.88v.71h-.88v2.49c0,.31.14.53.42.53a.62.62,0,0,0,.44-.17l.21.61a1.15,1.15,0,0,1-.85.28A1,1,0,0,1,45,12.06Z"/><path class="cls-1" d="M49.7,8.57a2.14,2.14,0,0,1,2.12,2.35v.2H48.38a1.42,1.42,0,0,0,1.48,1.35A1.85,1.85,0,0,0,51.14,12l.38.53a2.45,2.45,0,0,1-1.75.65,2.17,2.17,0,0,1-2.25-2.29A2.19,2.19,0,0,1,49.7,8.57Zm-1.33,2H51a1.29,1.29,0,0,0-1.32-1.3A1.33,1.33,0,0,0,48.37,10.53Z"/><path class="cls-1" d="M55.95,10.25c0-.72-.37-1-.93-1a1.55,1.55,0,0,0-1.2.63V13H53V8.68h.81v.61a2.08,2.08,0,0,1,1.54-.72,1.25,1.25,0,0,1,1.4,1.4V13h-.81Z"/><path class="cls-1" d="M60.6,7.47A.52.52,0,0,1,61.12,7a.51.51,0,0,1,.52.51.52.52,0,0,1-.52.52A.53.53,0,0,1,60.6,7.47Zm.13,1.21h.81V13h-.81Z"/><path class="cls-1" d="M65.94,10.25c0-.72-.37-1-.93-1a1.55,1.55,0,0,0-1.2.63V13H63V8.68h.81v.61a2.08,2.08,0,0,1,1.54-.72,1.25,1.25,0,0,1,1.4,1.4V13h-.81Z"/><path d="M37.53,17.49a4.63,4.63,0,0,1,4.78,4.83,4.78,4.78,0,1,1-9.55,0A4.63,4.63,0,0,1,37.53,17.49Zm0,1.46a3.1,3.1,0,0,0-3.1,3.38,3.11,3.11,0,1,0,6.19,0A3.1,3.1,0,0,0,37.53,18.94Z"/><path d="M43,20.22h1.57l2,5.07,2-5.07h1.58L47.32,27H45.73Z"/><path d="M53.8,20c2,0,3.33,1.55,3.33,3.68v.35H51.91a2,2,0,0,0,2.16,1.86A2.86,2.86,0,0,0,56,25.2l.67,1a3.94,3.94,0,0,1-2.75,1,3.4,3.4,0,0,1-3.54-3.56A3.42,3.42,0,0,1,53.8,20ZM51.9,23h3.81a1.81,1.81,0,0,0-1.91-1.79A1.87,1.87,0,0,0,51.9,23Z"/><path d="M58.55,20.22H60v1a2.89,2.89,0,0,1,2.2-1.15v1.46a2.15,2.15,0,0,0-.46,0,2.34,2.34,0,0,0-1.74.9V27H58.55Z"/><path d="M66.37,20A3,3,0,0,1,69,21.25l-1,.9a1.81,1.81,0,0,0-1.55-.8,2,2,0,0,0-2,2.24,2.05,2.05,0,0,0,2,2.25,1.84,1.84,0,0,0,1.55-.8l1,.9a3,3,0,0,1-2.59,1.2,3.4,3.4,0,0,1-3.5-3.56A3.4,3.4,0,0,1,66.37,20Z"/><path d="M74.39,26.25a2.86,2.86,0,0,1-2.19.9,2.25,2.25,0,0,1-2.35-2.24,2.18,2.18,0,0,1,2.35-2.2,2.8,2.8,0,0,1,2.19.87v-1c0-.79-.64-1.26-1.58-1.26a2.77,2.77,0,0,0-2,.85l-.6-1A4,4,0,0,1,73,20c1.5,0,2.82.63,2.82,2.45V27H74.39Zm0-1.83a2,2,0,0,0-1.61-.7,1.23,1.23,0,1,0,0,2.42,2,2,0,0,0,1.61-.7Z"/><path d="M77.8,25a3.49,3.49,0,0,0,2.3,1c.88,0,1.33-.32,1.33-.83s-.71-.8-1.54-1c-1.16-.25-2.55-.56-2.55-2.07C77.34,21,78.29,20,80,20a3.87,3.87,0,0,1,2.63,1L82,22a2.73,2.73,0,0,0-2-.81c-.77,0-1.26.28-1.26.76s.67.7,1.47.88c1.18.25,2.62.59,2.62,2.19,0,1.19-1,2.1-2.82,2.1a4.11,4.11,0,0,1-2.9-1.05Z"/><path d="M84.7,25.41V21.51H83.58V20.22H84.7V18.37h1.47v1.85h1.37v1.29H86.17v3.54c0,.46.22.8.64.8a1,1,0,0,0,.66-.24l.35,1.11a1.94,1.94,0,0,1-1.39.43A1.56,1.56,0,0,1,84.7,25.41Z"/></g><g id="overcastCanvas"><path id="overcastCanvas-group" class="cls-2" d="M17.49,23.93A6.92,6.92,0,1,1,24.41,17,6.9,6.9,0,0,1,17.49,23.93Zm0-2.74.52-.52-.52-2-.52,2Zm-.66,0-.26,1,.61-.61Zm1.33,0-.35.35.61.61Zm.49,1.79-1.15-1.15-1.15,1.15a7.43,7.43,0,0,0,1.15.12A5.05,5.05,0,0,0,18.64,22.95ZM17.49,11a6,6,0,0,0-2,11.76l1.3-4.81a1.12,1.12,0,0,1-.46-.92,1.15,1.15,0,1,1,1.85.92l1.3,4.81a6,6,0,0,0-2-11.76ZM21.44,20a.45.45,0,0,1-.61.09.39.39,0,0,1-.09-.58,4.43,4.43,0,0,0,0-5,.39.39,0,0,1,.09-.58.45.45,0,0,1,.61.09,5.2,5.2,0,0,1,0,6Zm-2.1-1.12a.49.49,0,0,1,0-.66A1.88,1.88,0,0,0,19.8,17a2,2,0,0,0-.43-1.21.52.52,0,0,1,0-.66.4.4,0,0,1,.61,0,2.87,2.87,0,0,1,0,3.81A.42.42,0,0,1,19.34,18.88Zm-3.69,0a.42.42,0,0,1-.61,0,2.87,2.87,0,0,1,0-3.81.4.4,0,0,1,.61,0,.49.49,0,0,1,0,.66A2,2,0,0,0,15.18,17a1.88,1.88,0,0,0,.43,1.21A.49.49,0,0,1,15.65,18.88Zm-1.5,1.21a.45.45,0,0,1-.61-.09,5.2,5.2,0,0,1,0-6,.45.45,0,0,1,.61-.09.39.39,0,0,1,.09.58,4.43,4.43,0,0,0,0,5A.42.42,0,0,1,14.15,20.09Z"/></g></svg>