<svg xmlns="http://www.w3.org/2000/svg" xmlns:xlink="http://www.w3.org/1999/xlink" viewBox="0 0 132.79 34.01" width="132.79px" height="34.01px"><defs><style>.cls-1{fill:#777878;}.cls-2{fill:#fff;}.cls-3{fill:url(#linear-gradient);}</style><linearGradient id="linear-gradient" x1="17.49" y1="30.19" x2="17.49" y2="7.8" gradientTransform="matrix(1, 0, 0, -1, 0, 36)" gradientUnits="userSpaceOnUse"><stop offset="0" stop-color="#969696"/><stop offset="1" stop-color="#565656"/></linearGradient></defs><title>Artboard 1</title><g id="Icon"><g id="_Group_" data-name="&lt;Group&gt;"><path id="_Path_" data-name="&lt;Path&gt;" class="cls-1" d="M132.78,9.08c0-.33,0-.66,0-1a14.52,14.52,0,0,0-.2-2.15,7.17,7.17,0,0,0-.67-2,6.95,6.95,0,0,0-3-3,7.24,7.24,0,0,0-2.05-.68A14,14,0,0,0,124.7,0H8.09A14.35,14.35,0,0,0,5.93.21a7.19,7.19,0,0,0-2,.68A6.89,6.89,0,0,0,2.15,2.15,6.69,6.69,0,0,0,.88,3.89a7.09,7.09,0,0,0-.67,2A14,14,0,0,0,0,8.09c0,.33,0,.66,0,1V24.94c0,.33,0,.66,0,1a13.87,13.87,0,0,0,.19,2.15,7.07,7.07,0,0,0,.67,2,6.68,6.68,0,0,0,1.27,1.74,6.7,6.7,0,0,0,1.74,1.27,7.17,7.17,0,0,0,2,.68A14.35,14.35,0,0,0,8.09,34H124.7a14.15,14.15,0,0,0,2.15-.19,7.25,7.25,0,0,0,2.05-.68,6.71,6.71,0,0,0,1.74-1.27,6.88,6.88,0,0,0,1.27-1.74,7.18,7.18,0,0,0,.67-2,14.52,14.52,0,0,0,.2-2.15c0-.33,0-.66,0-1s0-.78,0-1.18V10.25C132.79,9.86,132.79,9.47,132.78,9.08Z"/><path id="_Path_2" data-name="&lt;Path&gt;" class="cls-2" d="M132.13,23.76c0,.39,0,.77,0,1.18s0,.65,0,1a13.78,13.78,0,0,1-.19,2.06,6.52,6.52,0,0,1-.6,1.85,6.32,6.32,0,0,1-1.15,1.58,6.2,6.2,0,0,1-1.57,1.14,6.67,6.67,0,0,1-1.86.62,14.5,14.5,0,0,1-2,.18H8.1A14.36,14.36,0,0,1,6,33.16a6.6,6.6,0,0,1-1.86-.62,6.28,6.28,0,0,1-2.72-2.72A6.59,6.59,0,0,1,.86,28a13.43,13.43,0,0,1-.18-2.05c0-.23,0-.46,0-.68V8.79c0-.23,0-.45,0-.69A13.42,13.42,0,0,1,.86,6.05a6.46,6.46,0,0,1,.61-1.86A6.06,6.06,0,0,1,2.62,2.62,6.24,6.24,0,0,1,4.19,1.47,6.58,6.58,0,0,1,6,.86,14.6,14.6,0,0,1,8.1.68H124.68a14.31,14.31,0,0,1,2.05.18,6.62,6.62,0,0,1,1.86.61,6.13,6.13,0,0,1,1.57,1.14,6.3,6.3,0,0,1,1.15,1.57,6.42,6.42,0,0,1,.61,1.87,13.58,13.58,0,0,1,.19,2c0,.32,0,.65,0,1s0,.77,0,1.16V23.76Z"/></g><path id="_Path_3" data-name="&lt;Path&gt;" class="cls-2" d="M132.13,23.76c0,.39,0,.77,0,1.18s0,.65,0,1a13.78,13.78,0,0,1-.19,2.06,6.52,6.52,0,0,1-.6,1.85,6.32,6.32,0,0,1-1.15,1.58,6.2,6.2,0,0,1-1.57,1.14,6.67,6.67,0,0,1-1.86.62,14.5,14.5,0,0,1-2,.18H8.1A14.36,14.36,0,0,1,6,33.16a6.6,6.6,0,0,1-1.86-.62,6.28,6.28,0,0,1-2.72-2.72A6.59,6.59,0,0,1,.86,28a13.43,13.43,0,0,1-.18-2.05c0-.23,0-.46,0-.68V8.79c0-.23,0-.45,0-.69A13.42,13.42,0,0,1,.86,6.05a6.46,6.46,0,0,1,.61-1.86A6.06,6.06,0,0,1,2.62,2.62,6.24,6.24,0,0,1,4.19,1.47,6.58,6.58,0,0,1,6,.86,14.6,14.6,0,0,1,8.1.68H124.68a14.31,14.31,0,0,1,2.05.18,6.62,6.62,0,0,1,1.86.61,6.13,6.13,0,0,1,1.57,1.14,6.3,6.3,0,0,1,1.15,1.57,6.42,6.42,0,0,1,.61,1.87,13.58,13.58,0,0,1,.19,2c0,.32,0,.65,0,1s0,.77,0,1.16V23.76Z"/><path id="_Path_4" data-name="&lt;Path&gt;" class="cls-3" d="M28.24,25.22a4.74,4.74,0,0,1-1.43,1.88,4.68,4.68,0,0,1-1.58.82,9.75,9.75,0,0,1-2.71.28H12.45a9.75,9.75,0,0,1-2.71-.28,4.74,4.74,0,0,1-3-2.7A8.79,8.79,0,0,1,6.29,22h0V12h0A8.77,8.77,0,0,1,6.74,8.8a4.74,4.74,0,0,1,3-2.7,9.75,9.75,0,0,1,2.71-.28H22.53a9.75,9.75,0,0,1,2.71.28,4.74,4.74,0,0,1,3,2.7A8.79,8.79,0,0,1,28.69,12V22A8.77,8.77,0,0,1,28.24,25.22Z"/></g><g id="Capa_1" data-name="Capa 1"><path class="cls-2" d="M12.5,20.18A1.81,1.81,0,1,0,14.31,22,1.81,1.81,0,0,0,12.5,20.18Zm-1.81-5.35v2.61a6.37,6.37,0,0,1,6.36,6.37h2.62A9,9,0,0,0,10.69,14.83Zm0-4.62v2.61a11,11,0,0,1,11,11h2.61A13.61,13.61,0,0,0,10.7,10.21Z"/></g><g id="Layer_1" data-name="Layer 1"><path class="cls-1" d="M33.56,11.49a2.53,2.53,0,0,0,1.89.85c1,0,1.31-.5,1.31-.93,0-.63-.68-.81-1.45-1-1-.25-2.08-.53-2.08-1.76,0-1,.87-1.71,2.12-1.71a2.94,2.94,0,0,1,2.19.84L37,8.44a2.35,2.35,0,0,0-1.74-.7c-.67,0-1.12.34-1.12.85s.65.71,1.4.9c1,.26,2.13.57,2.13,1.85,0,.94-.65,1.81-2.27,1.81a3.07,3.07,0,0,1-2.37-1Z"/><path class="cls-1" d="M41.82,12.43a2.15,2.15,0,0,1-1.55.7,1.23,1.23,0,0,1-1.39-1.39V8.68h.81v2.8c0,.72.36.94.92.94a1.57,1.57,0,0,0,1.21-.61V8.68h.81V13h-.81Z"/><path class="cls-1" d="M44.09,7h.81V9.31a1.74,1.74,0,0,1,1.42-.74,2,2,0,0,1,1.94,2.29c0,1.42-.81,2.28-1.94,2.28a1.79,1.79,0,0,1-1.42-.73V13h-.81Zm2,5.39c.81,0,1.31-.65,1.31-1.56s-.5-1.57-1.31-1.57a1.49,1.49,0,0,0-1.21.65v1.85A1.48,1.48,0,0,0,46.11,12.42Z"/><path class="cls-1" d="M49.49,11.87a2.11,2.11,0,0,0,1.46.62c.61,0,.94-.25.94-.62s-.5-.58-1.05-.7c-.74-.17-1.6-.37-1.6-1.31,0-.69.59-1.29,1.66-1.29a2.32,2.32,0,0,1,1.66.62l-.36.57a1.69,1.69,0,0,0-1.29-.53c-.55,0-.89.22-.89.57s.47.5,1,.63c.76.17,1.66.38,1.66,1.38,0,.75-.61,1.33-1.76,1.33a2.47,2.47,0,0,1-1.81-.68Z"/><path class="cls-1" d="M55.81,8.57a1.9,1.9,0,0,1,1.63.76l-.54.5a1.21,1.21,0,0,0-1.05-.54,1.42,1.42,0,0,0-1.4,1.56,1.42,1.42,0,0,0,1.4,1.57,1.24,1.24,0,0,0,1.05-.54l.54.5a1.9,1.9,0,0,1-1.63.77,2.17,2.17,0,0,1-2.21-2.29A2.16,2.16,0,0,1,55.81,8.57Z"/><path class="cls-1" d="M58.51,8.68h.81v.67a1.85,1.85,0,0,1,1.42-.77V9.4a1.24,1.24,0,0,0-.28,0,1.54,1.54,0,0,0-1.14.63v3h-.81Z"/><path class="cls-1" d="M61.61,7.47A.52.52,0,0,1,62.13,7a.51.51,0,0,1,.52.51.52.52,0,0,1-.52.52A.53.53,0,0,1,61.61,7.47Zm.13,1.21h.81V13h-.81Z"/><path class="cls-1" d="M64,7h.81V9.31a1.74,1.74,0,0,1,1.42-.74,2,2,0,0,1,1.94,2.29c0,1.42-.81,2.28-1.94,2.28a1.79,1.79,0,0,1-1.42-.73V13H64Zm2,5.39c.81,0,1.31-.65,1.31-1.56S66.84,9.29,66,9.29a1.5,1.5,0,0,0-1.21.65v1.85A1.48,1.48,0,0,0,66,12.42Z"/><path class="cls-1" d="M71.3,8.57a2.14,2.14,0,0,1,2.12,2.35v.2H70a1.42,1.42,0,0,0,1.48,1.35A1.85,1.85,0,0,0,72.74,12l.38.53a2.45,2.45,0,0,1-1.75.65,2.17,2.17,0,0,1-2.25-2.29A2.19,2.19,0,0,1,71.3,8.57Zm-1.33,2h2.66a1.29,1.29,0,0,0-1.32-1.3A1.33,1.33,0,0,0,70,10.53Z"/><path class="cls-1" d="M76.48,8.68h.86l1.36,3.41,1.36-3.41h.87L79.14,13h-.87Z"/><path class="cls-1" d="M81.64,7.47A.52.52,0,0,1,82.16,7a.51.51,0,0,1,.52.51.52.52,0,0,1-.52.52A.53.53,0,0,1,81.64,7.47Zm.13,1.21h.81V13h-.81Z"/><path class="cls-1" d="M86.73,12.55a1.86,1.86,0,0,1-1.42.59,1.44,1.44,0,0,1-1.51-1.44,1.4,1.4,0,0,1,1.51-1.42,1.81,1.81,0,0,1,1.42.58v-.72c0-.54-.44-.86-1.06-.86a1.78,1.78,0,0,0-1.31.58L84,9.28a2.44,2.44,0,0,1,1.78-.71c.95,0,1.75.41,1.75,1.52V13h-.81Zm0-1.21a1.38,1.38,0,0,0-1.12-.5.87.87,0,1,0,0,1.73,1.38,1.38,0,0,0,1.12-.5Z"/><path d="M36.44,23.5H34.81V27H33.17V17.64h4.1a2.84,2.84,0,0,1,3.05,2.93,2.62,2.62,0,0,1-2.21,2.75L40.4,27H38.51Zm.62-4.41H34.81v3h2.24a1.49,1.49,0,1,0,0-3Z"/><path d="M42.23,24.41a4,4,0,0,0,3,1.29c1.34,0,1.88-.66,1.88-1.27,0-.84-1-1.09-2.13-1.39-1.53-.38-3.32-.83-3.32-2.8,0-1.54,1.36-2.73,3.4-2.73a4.86,4.86,0,0,1,3.5,1.3L47.58,20A3.8,3.8,0,0,0,44.88,19c-1,0-1.58.46-1.58,1.16s1,1,2.06,1.25c1.54.39,3.38.87,3.38,2.9,0,1.55-1.09,2.89-3.61,2.89a5,5,0,0,1-3.8-1.48Z"/><path d="M50.53,24.41a4,4,0,0,0,3,1.29c1.34,0,1.88-.66,1.88-1.27,0-.84-1-1.09-2.13-1.39-1.53-.38-3.32-.83-3.32-2.8,0-1.54,1.36-2.73,3.4-2.73a4.86,4.86,0,0,1,3.5,1.3L55.88,20A3.8,3.8,0,0,0,53.18,19c-1,0-1.58.46-1.58,1.16s1,1,2.06,1.25c1.54.39,3.38.87,3.38,2.9,0,1.55-1.09,2.89-3.61,2.89a5,5,0,0,1-3.8-1.48Z"/><path d="M62.14,17.64h6.4v1.44H63.77v2.42h4.66v1.44H63.77v4H62.14Z"/><path d="M72.95,20c2,0,3.33,1.55,3.33,3.68v.35H71.05a2,2,0,0,0,2.16,1.86,2.86,2.86,0,0,0,1.92-.74l.67,1a3.94,3.94,0,0,1-2.75,1,3.4,3.4,0,0,1-3.54-3.56A3.42,3.42,0,0,1,72.95,20ZM71,23h3.81a1.81,1.81,0,0,0-1.91-1.79A1.87,1.87,0,0,0,71,23Z"/><path d="M80.74,20c2,0,3.33,1.55,3.33,3.68v.35H78.85A2,2,0,0,0,81,25.95a2.86,2.86,0,0,0,1.92-.74l.67,1a3.94,3.94,0,0,1-2.75,1,3.4,3.4,0,0,1-3.54-3.56A3.42,3.42,0,0,1,80.74,20Zm-1.9,3h3.81a1.81,1.81,0,0,0-1.91-1.79A1.87,1.87,0,0,0,78.84,23Z"/><path d="M90.29,26.06a2.74,2.74,0,0,1-2.17,1.09c-1.74,0-3-1.32-3-3.54s1.26-3.56,3-3.56a2.71,2.71,0,0,1,2.17,1.11V17.64h1.47V27H90.29Zm0-3.8a2.22,2.22,0,0,0-1.75-.91,2,2,0,0,0-1.9,2.25,2,2,0,0,0,1.9,2.24,2.21,2.21,0,0,0,1.75-.9Z"/></g></svg>